<svg xmlns="http://www.w3.org/2000/svg" width="105.631" height="105.631" viewBox="0 0 105.631 105.631">
  <g id="Group_5343" data-name="Group 5343" transform="translate(0)">
    <ellipse id="Ellipse_220" data-name="Ellipse 220" cx="50.733" cy="50.733" rx="50.733" ry="50.733" transform="translate(0 4.254) rotate(-2.403)" fill="#c12837"/>
    <path id="Path_97" data-name="Path 97" d="M151.435,975.7a2.554,2.554,0,0,1-1.968-.145c-.259-.243-.036-.7.367-.789a2.189,2.189,0,0,1,.588-.119c.566-.02.062.5.322.685.326.222,1.179-.909.689.368Zm18.1-.368c.279-.181-.223-.705.331-.685a2.143,2.143,0,0,1,.587.119c.414.082.617.546.368.789a2.548,2.548,0,0,1-1.967.145c-.477-1.276.353-.145.679-.368Zm18.605,42.462a1.826,1.826,0,0,0-.924-.284,2.884,2.884,0,0,1-1.043-.244,1.537,1.537,0,0,0-1.723.286c-.357.285-.581.327-1.919.447-1.884.14-2.491.14-2.491.02a5.462,5.462,0,0,1,1.073-.789c.81-.53,1.148-.669,1.4-.613a2.133,2.133,0,0,0,1.8-.7c.509-.532.638-.55,1.8-.51.275.02.088.021.466-.041a1.7,1.7,0,0,0-2.008-1.075,1.9,1.9,0,0,1-1.054.063,1.768,1.768,0,0,0-2.051,1.073c-.14.4-.9,1.012-2.214,1.821l-.975.611-1.872-.731a21.262,21.262,0,0,1-3.851-1.723,3.958,3.958,0,0,1,.575-.767,3.429,3.429,0,0,0,.577-.712,3.116,3.116,0,0,0-.811-.486,11.428,11.428,0,0,1-5.846-5.859c-.618-1.62-.307-2.008.466-.546a4.982,4.982,0,0,0,1.884,2.248c.882.57,1.389.669,1.732.368.386-.368.3-.793-.265-1.441-1.287-1.46-1.66-3.668-.6-3.668.4,0,.457.062,1.245,1.943,1.158,2.615,2.326,4.38,3.243,4.826.774.425,2.039.1,2.252-.565.151-.53-.042-.871-.935-1.422a6.218,6.218,0,0,1-2.661-4.3c-.126-.608-.1-.768.078-1.053.317-.469.55-.306,1.453,1.033,1.693,2.572,4.752,5.92,6,6.61,2.222,1.213,4.406,1.173,5.734-.145a1.214,1.214,0,0,0,.478-.914c0-.627-.478-.886-1.491-.851-2.317.1-2.53.083-3.423-.322-1.723-.831-3.4-2.776-4.721-5.515-1.26-2.574-.934-2.693,1.172-.545,2.838,2.895,5.127,3.974,7.238,3.342,1.022-.28,1.993-1.213,1.993-1.9,0-.726-.363-.928-1.479-.87-.5.02-1.426.04-2.063.04a3.254,3.254,0,0,1-2.04-.4,9.073,9.073,0,0,1-1.769-1.257c-1.349-1.256-3.621-4.38-3.621-4.986s.54-.364,1.923.871a25.624,25.624,0,0,0,4.079,2.8,4.015,4.015,0,0,0,1.873.286,2.968,2.968,0,0,0,1.852-.327,1.8,1.8,0,0,0,1.219-1.725c.1-1.276-.53-1.6-2.36-1.114-2.593.628-3.963.16-6.355-2.268-1.158-1.178-1.562-1.825-1.412-2.188.125-.369.643-.183,2.839.912,2.433,1.233,3.122,1.479,4.27,1.479a3.173,3.173,0,0,0,2.278-.733c.934-.81,1.178-1.722.575-2.308-.46-.487-1.385-.447-2.418.078a4.852,4.852,0,0,1-1.529.466,7.47,7.47,0,0,1-5.22-1.946c-.809-.811-1.2-1.562-.975-1.841s.581-.2,1.488.16a8.658,8.658,0,0,0,3.933.955,6.648,6.648,0,0,0,3.669-.955c.987-.543,1.645-1.256,1.645-1.722a1.808,1.808,0,0,0-.264-.789c-.363-.613-1.065-.591-2.309.12-2.526,1.358-4.25,1.562-6.013.669a7.217,7.217,0,0,1-2.341-2.232c-.191-.385-.193-.446-.01-.627.234-.225.394-.225,2.34.508a6.825,6.825,0,0,0,2.537.488,6.686,6.686,0,0,0,3.424-.571c1.34-.608,2.637-2.189,2.637-3.16a1.51,1.51,0,0,0-.593-1.213c-.564-.224-.881-.084-1.753.85a6.141,6.141,0,0,1-4.894,1.9c-2.287,0-3.253-.349-3.253-1.219,0-.608.467-.951,1.412-1.111a16.927,16.927,0,0,0,7.933-3.59c1.044-.971,1.437-1.661,1.427-2.492a1.691,1.691,0,0,0-1.162-1.784c-.618-.184-1.116.119-1.776,1.156a9.57,9.57,0,0,1-4.4,3.767,13.013,13.013,0,0,1-3.617,1.256.889.889,0,0,1-.405-.565c-.326-.872-.373-.893-1.671-.342-.636.278-1.955.788-2.941,1.131-1.967.689-2.627,1.115-3.083,2.048-.238.447-.291.747-.291,2.149-.009,1.459-.052,1.64-.306,2.029a1.51,1.51,0,0,1-1.55.706c-1.205,0-1.874-.706-1.936-2.085a5.978,5.978,0,0,1,.68-3.223,5.914,5.914,0,0,1,2.371-2.636,7.924,7.924,0,0,1,3.85-1.256c1.432-.124,2.888-.67,3.231-1.38a3.647,3.647,0,0,1-2.806-.264c.125-.079,2.741-.079,3.082-.1a3.581,3.581,0,0,0,2.139-.892c.7-.489,1.167-.955.975-1.277-.16-.347-.691-.285-1.054.121-.164.2-.508.57-.753.85-.413.466-.5.509-1.752.69a3.082,3.082,0,0,1-1.651,0c-.171-.118-.326-.279-.326-.343,0-.181.508-.466,1-.57a5.593,5.593,0,0,1,1.754.369,5.571,5.571,0,0,0-.369-.815c-.3-.607-.861-.829-2.225-.866-.975-.042-1.3-.1-1.511-.284a4.769,4.769,0,0,0-.518-.405,1.57,1.57,0,0,0-.7-.124,9.181,9.181,0,0,0-3.554.871,3.6,3.6,0,0,1-1.806.405,6.532,6.532,0,0,1-1.437-.14c-1.043-.287-1.23-.285-1.23-.084,0,.244.882,1.059,1.551,1.381.347.2.487.327.416.466a3.877,3.877,0,0,1-1.691,1.137c-.618.221-.6.461.071.788a1.184,1.184,0,0,1,.556.4c.01.364-1.287,1.214-1.873,1.214-.711,0-.436.569.353.732.425.1.425.16.041.564a1.254,1.254,0,0,1-1.235.593c-.476-.125-.574.078-.3.585.215.363.214.4-.02.566a1,1,0,0,1-.384.166v0a.458.458,0,0,0-.084.023.252.252,0,0,0-.109.014.367.367,0,0,0-.121-.014c-.019,0-.062-.02-.093-.02v0a1.319,1.319,0,0,1-.395-.164c-.223-.162-.223-.2,0-.566.276-.507.18-.71-.307-.585A1.269,1.269,0,0,1,158,980.5c-.384-.4-.384-.461.063-.564.778-.162,1.043-.732.331-.732-.585,0-1.883-.85-1.862-1.214.011-.085.244-.265.555-.4.68-.328.689-.566.063-.788a3.863,3.863,0,0,1-1.691-1.137c-.063-.139.077-.264.436-.466.658-.324,1.53-1.137,1.53-1.381,0-.2-.176-.2-1.219.084a6.588,6.588,0,0,1-1.439.14,3.592,3.592,0,0,1-1.814-.405,9.1,9.1,0,0,0-3.555-.871,1.565,1.565,0,0,0-.69.124,5.117,5.117,0,0,0-.531.405c-.211.181-.523.244-1.488.284-1.385.036-1.935.259-2.248.866a4.072,4.072,0,0,0-.367.815,5.6,5.6,0,0,1,1.763-.369c.478.1,1,.39,1,.57,0,.064-.164.225-.336.343a3.075,3.075,0,0,1-1.65,0c-1.241-.182-1.328-.222-1.764-.69-.213-.281-.566-.649-.733-.85-.362-.406-.89-.467-1.054-.121-.189.321.266.79.976,1.277a3.588,3.588,0,0,0,2.129.892c.332.02,2.958.02,3.082.1a3.617,3.617,0,0,1-2.8.264c.332.71,1.8,1.257,3.233,1.38a7.789,7.789,0,0,1,3.838,1.256,5.838,5.838,0,0,1,2.371,2.636,6.1,6.1,0,0,1,.692,3.223c-.073,1.38-.733,2.085-1.936,2.085a1.52,1.52,0,0,1-1.551-.706c-.266-.39-.3-.57-.317-2.029,0-1.4-.041-1.7-.274-2.149-.461-.933-1.122-1.359-3.1-2.048-.985-.343-2.3-.853-2.941-1.131-1.3-.552-1.344-.53-1.66.342a.92.92,0,0,1-.407.565,12.93,12.93,0,0,1-3.615-1.256,9.593,9.593,0,0,1-4.411-3.767c-.649-1.037-1.137-1.339-1.785-1.156a1.667,1.667,0,0,0-1.142,1.784c-.02.83.373,1.521,1.427,2.492a16.938,16.938,0,0,0,7.923,3.59c.956.159,1.412.5,1.412,1.111,0,.87-.954,1.219-3.254,1.219a6.12,6.12,0,0,1-4.882-1.9c-.881-.933-1.187-1.073-1.744-.85a1.492,1.492,0,0,0-.611,1.213c0,.97,1.307,2.553,2.635,3.16a8.592,8.592,0,0,0,5.972.083c1.935-.733,2.107-.733,2.34-.508.182.181.182.244-.022.627a7.1,7.1,0,0,1-2.339,2.232c-1.744.89-3.487.69-5.993-.669-1.265-.712-1.955-.733-2.319-.12a1.975,1.975,0,0,0-.275.789c0,.466.659,1.179,1.664,1.722a6.6,6.6,0,0,0,3.668.955,8.617,8.617,0,0,0,3.922-.955c.9-.363,1.257-.425,1.49-.16s-.175,1.032-.975,1.841a7.49,7.49,0,0,1-5.22,1.946,4.769,4.769,0,0,1-1.541-.466c-1.022-.525-1.946-.566-2.4-.078-.611.586-.379,1.5.565,2.308a3.181,3.181,0,0,0,2.278.733c1.127,0,1.837-.244,4.249-1.479,2.212-1.1,2.725-1.282,2.859-.912.151.362-.265,1.012-1.42,2.188-2.392,2.429-3.752,2.9-6.346,2.268-1.84-.488-2.469-.16-2.371,1.114a1.857,1.857,0,0,0,1.219,1.725,3,3,0,0,0,1.852.327,4.053,4.053,0,0,0,1.879-.286,24.966,24.966,0,0,0,4.074-2.8c1.407-1.235,1.946-1.478,1.946-.871s-2.283,3.73-3.637,4.986a9.2,9.2,0,0,1-1.765,1.257,3.26,3.26,0,0,1-2.028.4c-.648,0-1.573-.02-2.075-.04-1.115-.06-1.49.144-1.49.87,0,.692.981,1.625,1.992,1.9,2.125.632,4.4-.446,7.239-3.342,2.107-2.149,2.434-2.029,1.173.545-1.313,2.737-2.988,4.685-4.722,5.515-.871.4-1.1.425-3.424.322-1.012-.037-1.48.223-1.48.851a1.2,1.2,0,0,0,.488.914c1.32,1.316,3.5,1.359,5.713.145,1.258-.691,4.317-4.037,6.008-6.61.9-1.34,1.127-1.5,1.454-1.033.192.285.2.445.077,1.053a6.286,6.286,0,0,1-2.662,4.3c-.891.551-1.095.893-.923,1.422.2.663,1.469.992,2.231.565.909-.446,2.087-2.211,3.233-4.826.819-1.884.871-1.943,1.266-1.943,1.053,0,.68,2.208-.586,3.668-.581.647-.67,1.073-.265,1.441.333.3.831.2,1.723-.368a4.985,4.985,0,0,0,1.883-2.248c.773-1.463,1.094-1.073.457.546a11.363,11.363,0,0,1-5.838,5.859,3.384,3.384,0,0,0-.821.486,3.862,3.862,0,0,0,.587.712,3.808,3.808,0,0,1,.576.767,20.658,20.658,0,0,1-3.86,1.723l-1.883.731-.955-.613a5.906,5.906,0,0,1-2.226-1.82,1.755,1.755,0,0,0-2.051-1.073,1.916,1.916,0,0,1-1.053-.063,1.7,1.7,0,0,0-2.007,1.075c.393.061.2.062.488.041,1.159-.043,1.278-.02,1.785.51a2.13,2.13,0,0,0,1.8.7c.267-.057.6.084,1.4.613a5.738,5.738,0,0,1,1.073.789c0,.119-.628.119-2.489-.02-1.348-.12-1.562-.162-1.932-.447a1.515,1.515,0,0,0-1.712-.286,2.769,2.769,0,0,1-1.043.244,1.826,1.826,0,0,0-.924.286,1.568,1.568,0,0,0-.8,1.012,4.144,4.144,0,0,0,.965-.1c.873-.126.96-.1,1.236.14a4.343,4.343,0,0,0,.575.426,2.478,2.478,0,0,0,1.7-.063,6.808,6.808,0,0,1,2.305-.18c1.053-.023,1.986-.022,2.054,0a4.084,4.084,0,0,1-.94.6,2.475,2.475,0,0,1-1.935.634c-1.135-.022-1.774.343-1.967,1.053-.061.243-.181.706-.252,1.012-.171.67-.255.788.252,1.966.548-1.3.363-.913.526-1.136.285-.425.388-.486,1.016-.523a1.681,1.681,0,0,0,1.65-1.059c.223-.5.466-.684,1.65-1.438,1.646-1.011,1.529-1.011,3.367-.161.915.424,1.246.65,1.4.935a1.173,1.173,0,0,0,1.479.564c.649-.181.893-.061,1.307.509a2.3,2.3,0,0,0,.445.441,2.772,2.772,0,0,0,.074-.768c0-.546-.053-.649-.743-1.339-.809-.809-1.3-1.032-1.872-.809-.285.1-.5.083-1.195-.243-.793-.364-1.073-.65-.669-.65.068,0,1.338-.467,2.755-1.01l2.616-1.018.384.327a5.522,5.522,0,0,0,2.338,1.075c.448,0,.5-.043.638-.509a34.573,34.573,0,0,1,2.538-4.883c1.366-2.107,2.107-2.657,2.734-1.986.184.222.235.487.224,1.275a11.453,11.453,0,0,1-3.145,7.2,5.441,5.441,0,0,1-3.19,1.62c-.95.144-1.6.368-1.6.632a2.559,2.559,0,0,0,1.033,1.193,2.467,2.467,0,0,0,1.427.2,2.858,2.858,0,0,0,1.894-.607c.857-.509.975-.55,1.148-.384.17.181.18.281.051.768-.263,1.012-.986,1.459-2.666,1.66-1.723.223-2.309.755-1.734,1.542a2.164,2.164,0,0,0,1.9.8,4.277,4.277,0,0,0,3.03-1.522c.5-.446.944-.793,1.028-.73.173.081.161,1.136-.031,1.763a3.5,3.5,0,0,1-1.49,1.743,9.757,9.757,0,0,1-1.094.343c-1.4.383-1.614.933-.618,1.6a2.743,2.743,0,0,0,2.522.079,8.27,8.27,0,0,0,2.209-2.045c.234-.427.469-.1.394.525a4.745,4.745,0,0,1-1.063,2.11c-.571.768-.354,1.823.6,3.244a5.686,5.686,0,0,0,1.542,1.743,5.99,5.99,0,0,0,1.53-1.743c.961-1.422,1.156-2.474.586-3.244a4.589,4.589,0,0,1-1.053-2.11c-.083-.628.149-.951.393-.525a8.144,8.144,0,0,0,2.21,2.045,2.724,2.724,0,0,0,2.511-.079c1-.669.785-1.219-.617-1.6a9.833,9.833,0,0,1-1.1-.343,3.554,3.554,0,0,1-1.488-1.743c-.2-.628-.2-1.682-.011-1.763.074-.062.508.284,1.017.73a4.239,4.239,0,0,0,3.019,1.522,2.182,2.182,0,0,0,1.915-.8c.577-.789-.01-1.318-1.723-1.542-1.686-.2-2.4-.647-2.688-1.66-.129-.486-.1-.585.053-.768.172-.166.3-.124,1.135.384a2.966,2.966,0,0,0,1.915.607,2.374,2.374,0,0,0,1.406-.2,2.554,2.554,0,0,0,1.053-1.193c0-.264-.649-.488-1.6-.632a5.51,5.51,0,0,1-3.2-1.62,11.572,11.572,0,0,1-3.144-7.2c-.008-.789.041-1.053.234-1.275.618-.672,1.359-.12,2.713,1.986a33.538,33.538,0,0,1,2.548,4.883c.15.467.2.509.649.509a5.49,5.49,0,0,0,2.329-1.075l.384-.327,2.615,1.017c1.437.543,2.687,1.012,2.775,1.012.4,0,.1.286-.69.65-.684.326-.927.346-1.172.243-.6-.224-1.074,0-1.895.809-.678.689-.741.793-.741,1.339a2.89,2.89,0,0,0,.071.768,2.346,2.346,0,0,0,.458-.441c.4-.57.669-.69,1.287-.509a1.183,1.183,0,0,0,1.5-.564c.152-.286.492-.509,1.385-.935,1.837-.85,1.731-.85,3.367.161,1.2.752,1.428.935,1.66,1.438a1.685,1.685,0,0,0,1.639,1.059c.65.035.754.1,1.018.523.161.222-.01-.16.544,1.136.5-1.178.425-1.3.244-1.966-.081-.306-.2-.769-.244-1.012-.2-.712-.852-1.074-1.977-1.053a2.481,2.481,0,0,1-1.935-.634c-.586-.322-1.023-.6-.928-.6.058-.023,1-.022,2.054,0a6.6,6.6,0,0,1,2.282.18,2.483,2.483,0,0,0,1.7.063,5.071,5.071,0,0,0,.587-.426c.275-.244.363-.266,1.224-.14a4.254,4.254,0,0,0,.976.1A1.565,1.565,0,0,0,188.142,1017.8Z" transform="translate(-107.334 -951.248)" fill="#242222"/>
  </g>
</svg>
