<svg xmlns="http://www.w3.org/2000/svg" width="111.301" height="111.301" viewBox="0 0 111.301 111.301">
  <g id="Group_5339" data-name="Group 5339" transform="translate(0)">
    <ellipse id="Ellipse_218" data-name="Ellipse 218" cx="50.733" cy="50.733" rx="50.733" ry="50.733" transform="translate(0 100.935) rotate(-84.137)" fill="#2e307c"/>
    <g id="Group_5326" data-name="Group 5326" transform="translate(7.992 5.447)">
      <g id="Group_5324" data-name="Group 5324" transform="translate(15.808 25.27)">
        <path id="Path_76" data-name="Path 76" d="M2390.356,3016.8l1.56,4.81,4.711-1.79-2.779,4.2,4.327,2.576-5.019.435.692,4.991-3.491-3.652-3.459,3.652.69-4.991-5.031-.435,4.341-2.576-2.792-4.2,4.721,1.79Z" transform="translate(-2382.556 -2989.852)" fill="#fefefe"/>
        <path id="Path_77" data-name="Path 77" d="M2504.877,3034.637l.753,2.289,2.242-.848-1.323,2,2.062,1.228-2.4.206.343,2.375-1.672-1.741-1.64,1.741.33-2.375-2.391-.206,2.061-1.228-1.323-2,2.243.848Z" transform="translate(-2443.693 -2999.046)" fill="#fefefe"/>
        <path id="Path_78" data-name="Path 78" d="M2477.345,2991.034l.735,2.285,2.242-.854-1.324,2.009,2.061,1.225-2.392.2.33,2.382-1.654-1.742-1.659,1.742.333-2.382-2.392-.2,2.06-1.225-1.322-2.009,2.243.854Z" transform="translate(-2429.493 -2976.573)" fill="#fefefe"/>
        <path id="Path_79" data-name="Path 79" d="M2504.877,2961.193l.753,2.287,2.242-.845-1.323,2,2.062,1.229-2.4.21.343,2.374-1.672-1.739-1.64,1.739.33-2.374-2.391-.21,2.061-1.229-1.323-2,2.243.845Z" transform="translate(-2443.693 -2961.193)" fill="#fefefe"/>
        <path id="Path_80" data-name="Path 80" d="M2529.375,2983.694l.724,2.286,2.262-.852-1.338,2,2.073,1.222-2.4.21.341,2.382-1.66-1.744-1.655,1.744.333-2.382-2.4-.21,2.064-1.222-1.321-2,2.244.852Z" transform="translate(-2456.31 -2972.79)" fill="#fefefe"/>
        <path id="Path_81" data-name="Path 81" d="M2517.608,3005.786l.583,1.423,1.529.116-1.166.991.36,1.5-1.305-.816-1.3.816.36-1.5-1.173-.991,1.535-.116Z" transform="translate(-2451.072 -2984.176)" fill="#fefefe"/>
      </g>
      <g id="Group_5325" data-name="Group 5325">
        <path id="Path_82" data-name="Path 82" d="M2380.75,2914.9v5.594h-8.692a51.048,51.048,0,0,0-10.32,11.12h19.011v11.12h11.109v-11.12h27.819v-11.12h-27.819v-9.673A50.413,50.413,0,0,0,2380.75,2914.9Z" transform="translate(-2356.019 -2909.959)" fill="#fefefe"/>
        <path id="Path_83" data-name="Path 83" d="M2379.679,2928.808l41.78,20.89h7.449v-3.731l-43.244-21.63A50.852,50.852,0,0,0,2379.679,2928.808Z" transform="translate(-2365.265 -2916.928)" fill="#fefefe"/>
        <path id="Path_84" data-name="Path 84" d="M2404.933,2909.047l-51.915,25.961a50.441,50.441,0,0,0-3.082,6.81h4.388l59.254-29.634v-1.094A50.416,50.416,0,0,0,2404.933,2909.047Z" transform="translate(-2349.936 -2909.047)" fill="#fefefe"/>
        <path id="Path_85" data-name="Path 85" d="M2384.675,2914.458v8.869h-13.5a50.974,50.974,0,0,0-6.112,6.677h19.616v13.345h6.673V2930h30.025v-6.677h-30.025v-11.309A50.418,50.418,0,0,0,2384.675,2914.458Z" transform="translate(-2357.73 -2910.578)" fill="#e42229"/>
        <path id="Path_86" data-name="Path 86" d="M2423.86,2909.679,2403.43,2919.9h4.976l18.913-9.467q-1.707-.439-3.459-.758Zm-40.827,10.224c.4-.322.812-.641,1.226-.952l1.9.952Z" transform="translate(-2366.994 -2909.373)" fill="#e42229"/>
        <path id="Path_87" data-name="Path 87" d="M2391.348,2953.724l22.248,11.12v-2.488l-17.276-8.632Zm-41.412,11.12c.235-.644.486-1.279.747-1.911l18.421-9.209h4.973l-22.24,11.12Z" transform="translate(-2349.936 -2932.074)" fill="#e42229"/>
      </g>
    </g>
  </g>
</svg>
