<svg xmlns="http://www.w3.org/2000/svg" width="101.466" height="101.466" viewBox="0 0 101.466 101.466">
  <g id="Group_5340" data-name="Group 5340" transform="translate(0)">
    <g id="Group_5328" data-name="Group 5328" transform="translate(0 0)">
      <path id="Path_88" data-name="Path 88" d="M1238.712,188.07V101.989a50.739,50.739,0,0,0,0,86.081Z" transform="translate(-1214.842 -94.296)" fill="#e42229"/>
      <path id="Path_89" data-name="Path 89" d="M1374.965,101.987V188.07a50.74,50.74,0,0,0,0-86.083Z" transform="translate(-1297.369 -94.295)" fill="#e42229"/>
      <path id="Path_90" data-name="Path 90" d="M1317.825,179.89V93.807a50.753,50.753,0,0,0-53.726,0v86.081a50.754,50.754,0,0,0,53.726,0Z" transform="translate(-1240.229 -86.115)" fill="#fefefe"/>
    </g>
    <path id="Path_91" data-name="Path 91" d="M1294.606,139.07l-4.095,7.948c-.465.865-1.294.777-2.128.3l-2.967-1.6,2.211,12.224c.467,2.231-1.026,2.231-1.761,1.268l-5.17-6.031-.841,3.057a.993.993,0,0,1-1.16.725l-6.536-1.438,1.717,6.505c.373,1.452.652,2.054-.371,2.434l-2.332,1.137,11.26,9.527a1.564,1.564,0,0,1,.505,1.6l-.981,3.371c3.871-.464,7.352-.89,11.218-1.357.343,0,.919.306.916.718l-.515,12.337h1.889l-.3-12.31c0-.4.521-.744.858-.744,3.879.467,7.352.894,11.228,1.357l-.992-3.372a1.6,1.6,0,0,1,.516-1.595l11.256-9.527-2.332-1.139c-1.026-.38-.738-.979-.371-2.431l1.72-6.506-6.539,1.437a.994.994,0,0,1-1.16-.723l-.838-3.059-5.173,6.031c-.735.963-2.224.963-1.757-1.268l2.2-12.224-2.956,1.6c-.837.478-1.671.566-2.128-.3Z" transform="translate(-1243.876 -113.408)" fill="#e42229"/>
  </g>
</svg>
