<svg xmlns="http://www.w3.org/2000/svg" width="143.495" height="143.494" viewBox="0 0 143.495 143.494">
  <g id="Group_5337" data-name="Group 5337" transform="translate(0)">
    <circle id="Ellipse_217" data-name="Ellipse 217" cx="50.733" cy="50.733" r="50.733" transform="translate(0 71.747) rotate(-45)" fill="#fefefe"/>
    <path id="Path_71" data-name="Path 71" d="M3196.128,1813.026H3291.8a50.749,50.749,0,0,0-95.676,0Z" transform="translate(-3172.218 -1758.204)" fill="#ef9b39"/>
    <path id="Path_72" data-name="Path 72" d="M3291.8,1918.865H3196.14a50.748,50.748,0,0,0,95.664,0Z" transform="translate(-3172.224 -1830.178)" fill="#358c41"/>
    <path id="Path_73" data-name="Path 73" d="M3278.62,1853.973l-.385,7.662.415,4.358.391-4.358-.391-7.662a11.083,11.083,0,0,1,1.177.061c0,.02-.021.02-.021.042a.66.66,0,0,0,.629.67.634.634,0,0,0,.618-.572c.385.083.751.146,1.125.266l-2.349,7.294-.753,4.317,1.52-4.129,1.625-7.482c.364.124.724.223,1.094.362a.75.75,0,0,0-.052.224.631.631,0,0,0,1.214.244c.351.166.68.347,1.028.55l-4.167,6.4-1.847,4.017,2.549-3.589,3.5-6.808c.312.182.639.384.96.588a.614.614,0,0,0-.141.4.63.63,0,0,0,.639.628.539.539,0,0,0,.493-.265c.309.264.592.528.855.793l-5.675,5.127-2.808,3.382,3.374-2.8,5.138-5.693c.265.281.528.546.771.852a.605.605,0,0,0-.222.481.635.635,0,0,0,.618.635.582.582,0,0,0,.373-.126,9.921,9.921,0,0,1,.616.975l-6.806,3.486-3.585,2.553,3.978-1.827,6.437-4.192c.213.363.386.747.559,1.075a.689.689,0,0,0-.383.607.626.626,0,0,0,.616.627.478.478,0,0,0,.245-.061c.121.362.227.709.321,1.073l-7.486,1.583-4.1,1.519,4.316-.733,7.3-2.327c.092.321.177.732.251,1.094a.616.616,0,0,0-.55.628.643.643,0,0,0,.638.629h.062a10.509,10.509,0,0,1,.041,1.137l-7.64-.365-4.381.384,4.381.427,7.64-.4a10.423,10.423,0,0,1-.041,1.151h-.062a.66.66,0,0,0-.638.629.644.644,0,0,0,.541.632c-.072.384-.152.748-.244,1.11l-2.6-.829-4.69-1.521-4.316-.726h0l4.1,1.52,7.486,1.6a7.315,7.315,0,0,1-.342,1.075c-.019,0-.062-.021-.082-.021h-.142a.62.62,0,0,0-.639.628.565.565,0,0,0,.058.243h0a.464.464,0,0,0,.173.245h0c.015,0,.025.02.046.02h0c.021.02.04.042.06.042v0c.012,0,.031.023.042.043-.162.341-.348.685-.54,1.012l-6.422-4.157h-.012l-3.978-1.823h.016l2.089,1.458,1.479,1.055,6.809,3.485c-.205.343-.408.692-.629.993a.746.746,0,0,0-.363-.1.607.607,0,0,0-.63.606.588.588,0,0,0,.234.488c-.252.28-.508.567-.772.83l-5.137-5.677-3.363-2.8,2.8,3.382,5.677,5.132a9.108,9.108,0,0,1-.827.748.577.577,0,0,0-.394-.141.645.645,0,0,0-.628.628.768.768,0,0,0,.052.285c-.338.2-.679.426-1.012.649l-3.5-6.813-2.549-3.606,1.838,3.991,4.166,6.449c-.335.181-.67.363-1.018.525a.582.582,0,0,0-.565-.384.644.644,0,0,0-.638.627,1.023,1.023,0,0,0,.041.244,10.532,10.532,0,0,1-1.094.321l-1.625-7.5-1.52-4.073v-.021l.753,4.318,2.35,7.3a7.33,7.33,0,0,1-1.126.244.641.641,0,0,0-.618-.524.613.613,0,0,0-.629.606.57.57,0,0,1,0,.078,10.533,10.533,0,0,1-1.157.062l.392-7.644-.412-4.372-.394,4.372.385,7.644a10.834,10.834,0,0,1-1.175-.062c0-.02,0-.035,0-.078a.628.628,0,0,0-.638-.606.642.642,0,0,0-.618.524,9.594,9.594,0,0,1-1.093-.244l2.352-7.3.73-4.3-1.518,4.073-1.605,7.5c-.362-.078-.732-.2-1.105-.321a.671.671,0,0,0,.051-.244.64.64,0,0,0-.617-.627.681.681,0,0,0-.6.384c-.33-.163-.674-.343-1.011-.525l4.169-6.449,1.819-3.991-2.532,3.586-3.487,6.834c-.333-.224-.671-.426-.983-.649a.508.508,0,0,0,.121-.346.634.634,0,0,0-.618-.649.6.6,0,0,0-.488.245c-.3-.266-.586-.489-.85-.769l5.7-5.133,2.8-3.382-3.371,2.8-5.141,5.677c-.281-.263-.537-.57-.792-.83a.681.681,0,0,0,.246-.508.615.615,0,0,0-.629-.606.781.781,0,0,0-.373.1,10.356,10.356,0,0,1-.622-.97l6.835-3.508,3.555-2.492-3.982,1.823-6.423,4.155a10.808,10.808,0,0,1-.518-1.01.593.593,0,0,0,.4-.57.634.634,0,0,0-.638-.649.582.582,0,0,0-.265.061c-.118-.342-.244-.73-.352-1.114l7.5-1.6,4.125-1.52-4.338.726-7.3,2.35c-.1-.363-.169-.726-.254-1.13a.608.608,0,0,0,.551-.612.634.634,0,0,0-.633-.629h-.068c-.02-.363-.052-.747-.052-1.151l7.652.4,4.364-.427-4.364-.384-7.652.363c0-.363.031-.772.052-1.135h.109a.617.617,0,0,0,.628-.629.629.629,0,0,0-.588-.628c.086-.363.152-.772.254-1.094l7.3,2.327,4.338.733-4.125-1.519-7.5-1.6c.106-.384.231-.745.35-1.093a.958.958,0,0,0,.234.042.624.624,0,0,0,.629-.629.6.6,0,0,0-.375-.566,10.724,10.724,0,0,1,.529-1.053l6.424,4.192,4,1.827-3.576-2.553-6.832-3.486c.194-.326.407-.649.629-1a.506.506,0,0,0,.375.146.643.643,0,0,0,.627-.635.765.765,0,0,0-.232-.5c.235-.288.487-.551.756-.832l5.144,5.693,3.382,2.8-2.8-3.382-5.7-5.127c.287-.265.56-.529.85-.772a.6.6,0,0,0,.488.244.635.635,0,0,0,.64-.648.779.779,0,0,0-.13-.383c.322-.184.638-.406.969-.588l3.488,6.808,2.532,3.569-1.819-4-4.167-6.4c.335-.2.667-.383,1-.55a.631.631,0,0,0,.586.4.618.618,0,0,0,.627-.607.836.836,0,0,0-.041-.265c.356-.14.742-.238,1.1-.362l1.621,7.482,1.521,4.129-.738-4.317-2.349-7.294a10.688,10.688,0,0,1,1.113-.266.629.629,0,0,0,.618.55.637.637,0,0,0,.638-.647.411.411,0,0,0,0-.062,10.6,10.6,0,0,1,1.142-.041Zm.009-1.481a15.232,15.232,0,1,0,15.244,15.225A15.235,15.235,0,0,0,3278.628,1852.492Z" transform="translate(-3206.884 -1795.969)" fill="#2d2f77"/>
    <path id="Path_74" data-name="Path 74" d="M3292.446,1879.218a2.281,2.281,0,1,1-2.289,2.274A2.278,2.278,0,0,1,3292.446,1879.218Z" transform="translate(-3220.681 -1809.744)" fill="#fefefe"/>
    <path id="Path_75" data-name="Path 75" d="M3292.986,1880.311a1.743,1.743,0,0,1,1.754,1.744,1.767,1.767,0,1,1-1.754-1.744Z" transform="translate(-3221.221 -1810.307)" fill="#2d2f77"/>
  </g>
</svg>
