<svg xmlns="http://www.w3.org/2000/svg" width="143.495" height="143.494" viewBox="0 0 143.495 143.494">
  <g id="Group_5344" data-name="Group 5344" transform="translate(0)">
    <circle id="Ellipse_221" data-name="Ellipse 221" cx="50.733" cy="50.733" r="50.733" transform="translate(0 71.747) rotate(-45)" fill="#c6282d"/>
    <path id="Path_98" data-name="Path 98" d="M3486.6,695.056l43.828,25.568-38.974-32.48a50.869,50.869,0,0,0-4.855,6.913Zm87.651,51.136a50.937,50.937,0,0,1-4.853,6.911l-38.97-32.479Z" transform="translate(-3458.675 -648.879)" fill="#f8eb02"/>
    <path id="Path_99" data-name="Path 99" d="M3559.333,651.208l8.581,50.005,8.584-50a51.064,51.064,0,0,0-17.165,0ZM3576.5,751.222a51.059,51.059,0,0,1-17.165,0l8.581-50.01Z" transform="translate(-3496.163 -629.469)" fill="#f8eb02"/>
    <path id="Path_100" data-name="Path 100" d="M3569.394,688.152l-38.969,32.476,43.821-25.565a50.91,50.91,0,0,0-4.852-6.911Zm-77.943,64.961a50.855,50.855,0,0,1-4.856-6.914l43.83-25.57Z" transform="translate(-3458.673 -648.883)" fill="#f8eb02"/>
    <path id="Path_101" data-name="Path 101" d="M3523.078,748.921l50.389,5.883a50.934,50.934,0,0,0,0-11.756l-50.389,5.873Zm-50.4,5.883a50.9,50.9,0,0,1,0-11.757l50.4,5.873Z" transform="translate(-3451.327 -677.177)" fill="#f8eb02"/>
    <path id="Path_102" data-name="Path 102" d="M3557.737,717.748a18.142,18.142,0,1,1-18.15,18.135A18.132,18.132,0,0,1,3557.737,717.748Z" transform="translate(-3485.986 -664.137)" fill="#c6282d"/>
    <path id="Path_103" data-name="Path 103" d="M3561.6,725.221a14.513,14.513,0,1,1-14.513,14.513A14.5,14.5,0,0,1,3561.6,725.221Z" transform="translate(-3489.853 -667.989)" fill="#f8eb02"/>
  </g>
</svg>
