<svg xmlns="http://www.w3.org/2000/svg" width="101.466" height="101.466" viewBox="0 0 101.466 101.466">
  <g id="Group_5338" data-name="Group 5338" transform="translate(0)">
    <path id="Path_33" data-name="Path 33" d="M2164.375,3383.409h-54.094a50.758,50.758,0,0,0,54.094,0Z" transform="translate(-2086.596 -3289.749)" fill="#d0272c"/>
    <path id="Path_34" data-name="Path 34" d="M2100.12,3375.116h54.094a51.013,51.013,0,0,0,9.555-7.8h-73.2A51.018,51.018,0,0,0,2100.12,3375.116Z" transform="translate(-2076.434 -3281.456)" fill="#fefefe"/>
    <path id="Path_35" data-name="Path 35" d="M2084.027,3359.022h73.2a51.015,51.015,0,0,0,6.148-7.8h-85.5A50.971,50.971,0,0,0,2084.027,3359.022Z" transform="translate(-2069.895 -3273.16)" fill="#d0272c"/>
    <path id="Path_36" data-name="Path 36" d="M2073.531,3342.921h85.5a50.635,50.635,0,0,0,4.087-7.8h-93.674A50.593,50.593,0,0,0,2073.531,3342.921Z" transform="translate(-2065.548 -3264.86)" fill="#fefefe"/>
    <path id="Path_37" data-name="Path 37" d="M2066.748,3326.81h93.674a50.409,50.409,0,0,0,2.534-7.811h-98.744A50.359,50.359,0,0,0,2066.748,3326.81Z" transform="translate(-2062.852 -3256.552)" fill="#d0272c"/>
    <path id="Path_38" data-name="Path 38" d="M2062.923,3310.7h98.744a50.637,50.637,0,0,0,1.212-7.8H2061.711A50.726,50.726,0,0,0,2062.923,3310.7Z" transform="translate(-2061.563 -3248.255)" fill="#fefefe"/>
    <path id="Path_39" data-name="Path 39" d="M2061.553,3294.588h101.169q.148-1.936.148-3.912t-.147-3.9H2061.552q-.146,1.932-.148,3.9T2061.553,3294.588Z" transform="translate(-2061.404 -3239.943)" fill="#d0272c"/>
    <path id="Path_40" data-name="Path 40" d="M2061.709,3278.479H2162.88a50.623,50.623,0,0,0-1.211-7.8h-98.75A50.682,50.682,0,0,0,2061.709,3278.479Z" transform="translate(-2061.562 -3231.649)" fill="#fefefe"/>
    <path id="Path_41" data-name="Path 41" d="M2064.207,3262.385h98.75a50.341,50.341,0,0,0-2.528-7.8h-93.694A50.29,50.29,0,0,0,2064.207,3262.385Z" transform="translate(-2062.849 -3223.354)" fill="#d0272c"/>
    <path id="Path_42" data-name="Path 42" d="M2069.424,3246.278h93.694a50.692,50.692,0,0,0-4.086-7.81H2073.51A50.607,50.607,0,0,0,2069.424,3246.278Z" transform="translate(-2065.538 -3215.047)" fill="#fefefe"/>
    <path id="Path_43" data-name="Path 43" d="M2077.856,3230.167h85.521a50.9,50.9,0,0,0-6.148-7.8H2084A50.9,50.9,0,0,0,2077.856,3230.167Z" transform="translate(-2069.884 -3206.746)" fill="#d0272c"/>
    <path id="Path_44" data-name="Path 44" d="M2090.542,3214.063h73.226a50.951,50.951,0,0,0-9.557-7.8H2100.1A50.935,50.935,0,0,0,2090.542,3214.063Z" transform="translate(-2076.422 -3198.446)" fill="#fefefe"/>
    <path id="Path_45" data-name="Path 45" d="M2110.264,3197.95h54.112a50.754,50.754,0,0,0-54.112,0Z" transform="translate(-2086.587 -3190.137)" fill="#d0272c"/>
    <path id="Path_46" data-name="Path 46" d="M2061.553,3245.377H2104.6V3191.29a50.743,50.743,0,0,0-43.193,50.175Q2061.4,3243.44,2061.553,3245.377Z" transform="translate(-2061.404 -3190.731)" fill="#2e3c66"/>
    <path id="Path_47" data-name="Path 47" d="M2068.581,3254.39h1.767l-1.754,1.278.66,2.066-1.541-1.133Q2068.122,3255.483,2068.581,3254.39Z" transform="translate(-2064.656 -3223.253)" fill="#fefefe"/>
    <path id="Path_48" data-name="Path 48" d="M2065.27,3268.958l.668,2.062h2.167l-1.754,1.276.66,2.056-1.741-1.28-1.751,1.28.658-2.056-.816-.594c.045-.228.089-.455.137-.682h1.094Z" transform="translate(-2062.412 -3230.761)" fill="#fefefe"/>
    <path id="Path_49" data-name="Path 49" d="M2083.114,3230.474l.33,1.008-.709-.513C2082.86,3230.8,2082.985,3230.638,2083.114,3230.474Z" transform="translate(-2072.398 -3210.927)" fill="#fefefe"/>
    <path id="Path_50" data-name="Path 50" d="M2077.525,3240.224l.68,2.058h2.167l-1.752,1.274.678,2.072-1.772-1.28-1.743,1.28.66-2.072-1.752-1.274h2.164Z" transform="translate(-2068.252 -3215.952)" fill="#fefefe"/>
    <path id="Path_51" data-name="Path 51" d="M2077.525,3259.033l.68,2.068h2.167l-1.752,1.276.678,2.062-1.772-1.274-1.743,1.274.66-2.062-1.752-1.276h2.164Z" transform="translate(-2068.252 -3225.646)" fill="#fefefe"/>
    <path id="Path_52" data-name="Path 52" d="M2077.525,3277.844l.68,2.079h2.167l-1.752,1.265.678,2.061-1.772-1.272-1.743,1.272.66-2.061-1.752-1.265h2.164Z" transform="translate(-2068.252 -3235.341)" fill="#fefefe"/>
    <path id="Path_53" data-name="Path 53" d="M2093.1,3216.756h1.551l-1.762,1.28.667,2.058-1.761-1.267-1.752,1.267.186-.566Q2091.612,3218.085,2093.1,3216.756Z" transform="translate(-2076.166 -3203.856)" fill="#fefefe"/>
    <path id="Path_54" data-name="Path 54" d="M2090.649,3231.314l.668,2.058h2.188l-1.762,1.28.667,2.061-1.761-1.262-1.752,1.262.679-2.061-1.759-1.28h2.173Z" transform="translate(-2075.017 -3211.36)" fill="#fefefe"/>
    <path id="Path_55" data-name="Path 55" d="M2090.649,3250.137l.668,2.061h2.188l-1.762,1.277.667,2.066-1.761-1.28-1.752,1.28.679-2.066-1.759-1.277h2.173Z" transform="translate(-2075.017 -3221.061)" fill="#fefefe"/>
    <path id="Path_56" data-name="Path 56" d="M2090.649,3268.958l.668,2.062h2.188l-1.762,1.276.667,2.056-1.761-1.28-1.752,1.28.679-2.056-1.759-1.276h2.173Z" transform="translate(-2075.017 -3230.761)" fill="#fefefe"/>
    <path id="Path_57" data-name="Path 57" d="M2106.258,3206.843h1.682l-1.752,1.277.659,2.061-1.752-1.273-1.739,1.273.545-1.716Q2105.056,3207.622,2106.258,3206.843Z" transform="translate(-2083.026 -3198.747)" fill="#fefefe"/>
    <path id="Path_58" data-name="Path 58" d="M2103.931,3221.4l.68,2.06h2.166l-1.752,1.271.659,2.072-1.752-1.28-1.739,1.28.655-2.072-1.749-1.271h2.167Z" transform="translate(-2081.862 -3206.251)" fill="#fefefe"/>
    <path id="Path_59" data-name="Path 59" d="M2103.931,3240.224l.68,2.058h2.166l-1.752,1.274.659,2.072-1.752-1.28-1.739,1.28.655-2.072-1.749-1.274h2.167Z" transform="translate(-2081.862 -3215.952)" fill="#fefefe"/>
    <path id="Path_60" data-name="Path 60" d="M2103.931,3259.033l.68,2.068h2.166l-1.752,1.276.659,2.062-1.752-1.274-1.739,1.274.655-2.062-1.749-1.276h2.167Z" transform="translate(-2081.862 -3225.646)" fill="#fefefe"/>
    <path id="Path_61" data-name="Path 61" d="M2103.931,3277.844l.68,2.079h2.166l-1.752,1.265.659,2.061-1.752-1.272-1.739,1.272.655-2.061-1.749-1.265h2.167Z" transform="translate(-2081.862 -3235.341)" fill="#fefefe"/>
    <path id="Path_62" data-name="Path 62" d="M2117.051,3212.478l.66,2.073h2.177l-1.741,1.28.647,2.058-1.743-1.267-1.772,1.267.679-2.058-1.742-1.28h2.156Z" transform="translate(-2088.624 -3201.652)" fill="#fefefe"/>
    <path id="Path_63" data-name="Path 63" d="M2117.051,3231.314l.66,2.058h2.177l-1.741,1.28.647,2.061-1.743-1.262-1.772,1.262.679-2.061-1.742-1.28h2.156Z" transform="translate(-2088.624 -3211.36)" fill="#fefefe"/>
    <path id="Path_64" data-name="Path 64" d="M2117.051,3250.137l.66,2.061h2.177l-1.741,1.277.647,2.066-1.743-1.28-1.772,1.28.679-2.066-1.742-1.277h2.156Z" transform="translate(-2088.624 -3221.061)" fill="#fefefe"/>
    <path id="Path_65" data-name="Path 65" d="M2117.051,3268.958l.66,2.062h2.177l-1.741,1.276.647,2.056-1.743-1.28-1.772,1.28.679-2.056-1.742-1.276h2.156Z" transform="translate(-2088.624 -3230.761)" fill="#fefefe"/>
    <path id="Path_66" data-name="Path 66" d="M2130.292,3202.565l.691,2.073h2.154l-1.751,1.276.678,2.061-1.772-1.273-1.74,1.273.66-2.061-1.752-1.276h2.166Z" transform="translate(-2095.449 -3196.542)" fill="#fefefe"/>
    <path id="Path_67" data-name="Path 67" d="M2130.292,3221.4l.691,2.06h2.154l-1.751,1.271.678,2.072-1.772-1.28-1.74,1.28.66-2.072-1.752-1.271h2.166Z" transform="translate(-2095.449 -3206.251)" fill="#fefefe"/>
    <path id="Path_68" data-name="Path 68" d="M2130.292,3240.224l.691,2.058h2.154l-1.751,1.274.678,2.072-1.772-1.28-1.74,1.28.66-2.072-1.752-1.274h2.166Z" transform="translate(-2095.449 -3215.952)" fill="#fefefe"/>
    <path id="Path_69" data-name="Path 69" d="M2130.292,3259.033l.691,2.068h2.154l-1.751,1.276.678,2.062-1.772-1.274-1.74,1.274.66-2.062-1.752-1.276h2.166Z" transform="translate(-2095.449 -3225.646)" fill="#fefefe"/>
    <path id="Path_70" data-name="Path 70" d="M2130.292,3277.844l.691,2.079h2.154l-1.751,1.265.678,2.061-1.772-1.272-1.74,1.272.66-2.061-1.752-1.265h2.166Z" transform="translate(-2095.449 -3235.341)" fill="#fefefe"/>
  </g>
</svg>
